<svg width="24" height="24" viewBox="0 0 24 24" fill="none" xmlns="http://www.w3.org/2000/svg">
<path d="M15.9995 5L18.9995 8M8.99953 7.06995C7.25057 7.32623 5.66325 8.23451 4.55616 9.6125C3.44906 10.9905 2.90411 12.7362 3.03068 14.4993C3.15725 16.2624 3.94597 17.9124 5.23854 19.1181C6.53112 20.3239 8.23189 20.9961 9.99953 20.9999C11.6827 20.9998 13.3094 20.3933 14.5819 19.2916C15.8544 18.1899 16.6874 16.6667 16.9285 15.0009M11.9995 15L20.3845 6.58499C20.7784 6.19114 20.9996 5.65697 20.9996 5.09998C20.9996 4.543 20.7784 4.00883 20.3845 3.61498C19.9907 3.22114 19.4565 2.99988 18.8995 2.99988C18.3425 2.99988 17.8084 3.22114 17.4145 3.61498L8.99953 12V15H11.9995Z" stroke="#000" stroke-width="2" stroke-linecap="round" stroke-linejoin="round"/>
</svg>
